<?xml version="1.0" encoding="utf-8" ?>
<!-- Generator: Adobe Illustrator 19.0.0, SVG Export Plug-In . SVG Version: 6.00 Build 0)  -->
<svg version="1.1" xmlns="http://www.w3.org/2000/svg" width="407.9999999999994" height="459.13333333333264" id="svgcontent" overflow="visible" x="408.00000000000034" y="459.1333333333326" viewBox="0 0 306 344.35">
	<g style="pointer-events:all">
		<title style="pointer-events:inherit">Layer 1</title>
		<path id="svg_1" d="M301.1534446872562,260.5120048215772 C303.6799870211626,256.2563815099241 305.25,251.46151475387555 305.25,247.1557530574495 L305.25,97.69322804907088 C305.25,93.38746635264484 303.68209159620125,88.59362282893854 301.15449697477544,84.3379995172855 L144.2500095428175,172.42500216943134 L301.1534446872562,260.5120048215772 z" fill="#813084"></path>
		<path id="svg_2" d="M166.25,341.193L292.75,268.159C296.394,266.055 299.706,262.422 302.107,258.262L153,172.175L3.893,258.263C6.294,262.422 9.607,266.056 13.25,268.159L139.75,341.193C147.037,345.401 158.963,345.401 166.25,341.193z" fill="#6a1577"></path>
		<path id="svg_3" d="M302.108,86.087C299.706,81.927 296.393,78.294 292.75,76.19L166.25,3.156C158.963,-1.052 147.037,-1.052 139.75,3.156L13.25,76.19C5.962,80.397 0,90.725 0,99.14L0,245.209C0,249.417 1.491,254.103 3.893,258.262L153,172.175L302.108,86.087z" fill="#9a4993" fill-opacity="1" stroke="none" stroke-opacity="1"></path>
		<g id="svg_4" style="pointer-events:inherit">
			<path id="svg_5" d="M153,274.175C96.757,274.175 51,228.418 51,172.175S96.757,70.175 153,70.175C189.292,70.175 223.139,89.705 241.331,121.143L197.188,146.687C188.083,130.951 171.15,121.175 153,121.175C124.878,121.175 102,144.053 102,172.175C102,200.296 124.878,223.175 153,223.175C171.152,223.175 188.085,213.399 197.191,197.66L241.334,223.203C223.142,254.644 189.294,274.175 153,274.175z" fill="#FFFFFF" style="pointer-events:inherit"></path>
		</g>
		<g id="XMLID_32_">
			<rect id="XMLID_2_" x="226.39999999999998" y="145.5" class="st3" width="10.7" height="51.7" fill="#ffffff"></rect>
			<rect id="XMLID_30_" x="250.10000000000002" y="145.5" class="st3" width="10.7" height="51.7" fill="#ffffff"></rect>
			<rect id="XMLID_31_" x="217.8" y="154.2" class="st3" width="51.7" height="10.7" fill="#ffffff"></rect>
			<rect id="XMLID_23_" x="217.8" y="177.8" class="st3" width="51.7" height="10.7" fill="#ffffff"></rect>
		</g>
	</g>
</svg>