<svg width="1200" height="1200" xmlns="http://www.w3.org/2000/svg" xmlns:svg="http://www.w3.org/2000/svg">
    <g>
        <title>Layer 1</title>
        <path id="svg_1" d="m761.731012,599.036037l205.790395,-357.702324l99.438516,357.703354l-99.442606,357.616891l-205.786304,-357.617921l0,0l-0.000001,0zm-100.298468,58.090409l205.814935,357.642624l-358.444729,-92.436584l-258.948951,-265.20604l411.578744,0l0.000001,0zm205.770966,-473.926373l-205.769944,357.701295l-411.578744,0l258.949973,-265.224568l358.398715,-92.476727zm293.77549,294.104052l-125.544871,-470.16011l-468.594305,126.002539l-69.365745,122.763285l-140.753043,-1.013875l-342.983991,344.17404l342.982969,344.091695l0.014315,0l140.695781,-1.047842l69.464931,122.764315l468.539088,125.977835l125.538736,-470.069531l-71.29936,-121.745293l71.29936,-121.729853l0.006135,-0.007205z" fill="#f4f4f4" />
        <polygon fill="#077fff" id="svg_6" />
    </g>
</svg>